<svg height="512" viewBox="0 0 128 128" width="512" xmlns="http://www.w3.org/2000/svg"><g id="number"><text fill="#24253a" font-family="MyriadPro-Regular, Myriad Pro" font-size="40" letter-spacing=".002em" transform="translate(60.261 -282.265)">9<tspan x="-10.3" y="228">19</tspan><tspan x="-10.3" y="456">29</tspan><tspan x="-10.3" y="684">39</tspan><tspan x="-10.3" y="912">49</tspan><tspan x="-10.3" y="1140">59</tspan><tspan x="-10.3" y="1368">69</tspan><tspan x="-10.3" y="1596">79</tspan><tspan x="-10.3" y="1824">89</tspan><tspan x="-10.3" y="2052">99</tspan><tspan x="-20.599" y="2280">109</tspan><tspan x="-20.599" y="2508">119</tspan><tspan x="-20.599" y="2736">129</tspan><tspan x="-20.599" y="2964">139</tspan><tspan x="-20.599" y="3192">149</tspan><tspan x="-20.599" y="3420">159</tspan><tspan x="-20.599" y="3648">169</tspan><tspan x="-20.599" y="3876">179</tspan><tspan x="-20.599" y="4104">189</tspan><tspan x="-20.599" y="4332">199</tspan><tspan x="-20.599" y="4560">209</tspan><tspan x="-20.599" y="4788">219</tspan><tspan x="-20.599" y="5016">229</tspan><tspan x="-20.599" y="5244">239</tspan><tspan x="-20.599" y="5472">249</tspan></text></g><g id="icon"><path d="m57.714 91.3a6.258 6.258 0 1 1 -6.25-6.265 6.242 6.242 0 0 1 6.25 6.265z" fill="#414451"/><path d="m51.462 94.123a2.833 2.833 0 1 1 2.827-2.823 2.836 2.836 0 0 1 -2.827 2.823z" fill="#dbd8dd"/><path d="m88.154 91.3a6.258 6.258 0 1 1 -6.254-6.267 6.242 6.242 0 0 1 6.254 6.267z" fill="#414451"/><path d="m81.9 94.123a2.833 2.833 0 1 1 2.829-2.823 2.836 2.836 0 0 1 -2.829 2.823z" fill="#dbd8dd"/><path d="m104.933 46.509-6.533 21.574a3.1 3.1 0 0 1 -2.617 2.183l-50.131 6.495-6.975-36.647 64.876 4.4a1.552 1.552 0 0 1 1.38 1.995z" fill="#dbd8dd"/><path d="m94.511 85.033h-51.859a5.183 5.183 0 1 1 0-10.366h.7l-6.892-40.238h-7.806a1.551 1.551 0 1 1 0-3.1h9.113a1.55 1.55 0 0 1 1.533 1.287l7.426 43.34a1.551 1.551 0 0 1 -1.529 1.813h-2.54a2.081 2.081 0 1 0 0 4.162h51.854a1.551 1.551 0 1 1 0 3.1z" fill="#eeefee"/><g fill="#bbbbcd"><path d="m92.606 51.822h-.062l-45.366-3.538a.776.776 0 0 1 -.712-.834.792.792 0 0 1 .833-.713l45.366 3.536a.776.776 0 0 1 -.059 1.549z"/><path d="m51.7 68.7a.775.775 0 0 1 -.053-1.549l40.9-2.921a.791.791 0 0 1 .828.718.775.775 0 0 1 -.719.829l-40.899 2.923z"/><path d="m92.6 58.8h-43.523a.776.776 0 0 1 0-1.551h43.523a.776.776 0 1 1 0 1.551z"/></g><path d="m33.437 30.675v4.269a.223.223 0 0 1 -.223.223h-7.856a2.358 2.358 0 0 1 -2.358-2.358 2.358 2.358 0 0 1 2.358-2.357h7.856a.223.223 0 0 1 .223.223z" fill="#575b6d"/></g></svg>