<svg width="158" height="26" viewBox="0 0 158 26" fill="none" xmlns="http://www.w3.org/2000/svg">
<path d="M10.3574 15.6465H4.3457V26H0.953125V0.40625H9.42578C12.3086 0.40625 14.5234 1.0625 16.0703 2.375C17.6289 3.6875 18.4082 5.59766 18.4082 8.10547C18.4082 9.69922 17.9746 11.0879 17.1074 12.2715C16.252 13.4551 15.0566 14.3398 13.5215 14.9258L19.5332 25.7891V26H15.9121L10.3574 15.6465ZM4.3457 12.8867H9.53125C11.207 12.8867 12.5371 12.4531 13.5215 11.5859C14.5176 10.7188 15.0156 9.55859 15.0156 8.10547C15.0156 6.52344 14.541 5.31055 13.5918 4.4668C12.6543 3.62305 11.2949 3.19531 9.51367 3.18359H4.3457V12.8867ZM43.0211 14.1699H31.9293V23.2402H44.8141V26H28.5543V0.40625H44.6383V3.18359H31.9293V11.4102H43.0211V14.1699ZM68.548 19.3203H57.8254L55.4172 26H51.9367L61.7102 0.40625H64.6633L74.4543 26H70.9914L68.548 19.3203ZM58.8449 16.543H67.5461L63.1867 4.57227L58.8449 16.543ZM83.2996 26V0.40625H90.5242C92.7508 0.40625 94.7195 0.898438 96.4305 1.88281C98.1414 2.86719 99.4598 4.26758 100.386 6.08398C101.323 7.90039 101.798 9.98633 101.809 12.3418V13.9766C101.809 16.3906 101.341 18.5059 100.403 20.3223C99.4773 22.1387 98.1473 23.5332 96.4129 24.5059C94.6902 25.4785 92.6805 25.9766 90.3836 26H83.2996ZM86.6746 3.18359V23.2402H90.2254C92.827 23.2402 94.8484 22.4316 96.2898 20.8145C97.743 19.1973 98.4695 16.8945 98.4695 13.9062V12.4121C98.4695 9.50586 97.784 7.25 96.4129 5.64453C95.0535 4.02734 93.1199 3.20703 90.6121 3.18359H86.6746ZM119.356 13.2559L126.036 0.40625H129.868L121.043 16.4551V26H117.668V16.4551L108.844 0.40625H112.711L119.356 13.2559ZM146.693 13.2559L153.373 0.40625H157.205L148.381 16.4551V26H145.006V16.4551L136.182 0.40625H140.049L146.693 13.2559Z" fill="black"/>
</svg>
