<svg id="solid" height="512" viewBox="0 0 512 512" width="512" xmlns="http://www.w3.org/2000/svg"><path d="m260.353 356.31 52.86-69.453-42.602-25.561z"/><path d="m452.533 40.739a2.282 2.282 0 0 0 -2.5-.134l-366.382 197.284 97.416-5.73 143.233-110.493 9.773 12.668-141.6 109.237 15.477 133.153a17.118 17.118 0 0 0 28.891 10.484l3.247-4.267a17.07 17.07 0 0 0 1.963-6.131l14-129.669a8 8 0 0 1 1.988-4.468l35.714-40 11.936 10.656-29.274 32.787 141.177 84.706 35.968-287.802a2.28 2.28 0 0 0 -1.027-2.281zm-132.633 156.667-11.8-10.812 110-120 11.8 10.812z"/><path d="m319.751 380h64.498v16.001h-64.498z" transform="matrix(.496 -.868 .868 .496 -159.518 501.124)"/><path d="m119.716 316h56.569v16h-56.569z" transform="matrix(.707 -.707 .707 .707 -185.754 199.549)"/><path d="m97.479 384h85.041v16h-85.041z" transform="matrix(.659 -.753 .753 .659 -247.201 239.227)"/><path d="m210.817 444h82.365v16h-82.365z" transform="matrix(.486 -.874 .874 .486 -265.501 452.768)"/><path d="m275.056 384h17.889v16h-17.889z" transform="matrix(.447 -.894 .894 .447 -193.624 470.71)"/><path d="m315.056 432h17.889v16h-17.889z" transform="matrix(.447 -.894 .894 .447 -214.445 533.02)"/><path d="m154.343 82.343a8 8 0 0 0 -2.1 7.6l3.782 15.126-16.443-8.221a8 8 0 0 0 -7.156 0l-16.443 8.221 3.782-15.126a8 8 0 0 0 -2.1-7.6l-14.01-14.009 18.293-4.573a8 8 0 0 0 5.215-4.183l8.837-17.689 8.845 17.689a8 8 0 0 0 5.215 4.183l18.293 4.573z"/></svg>